<svg width="216" height="178" viewBox="0 0 216 178" fill="none" xmlns="http://www.w3.org/2000/svg">
<path d="M39.664 37.088V34.184H42.986C43.822 34.184 44.5627 34.0593 45.208 33.81C45.868 33.546 46.4253 33.1793 46.88 32.71C47.3347 32.2407 47.6793 31.6907 47.914 31.06C48.1633 30.4147 48.288 29.7033 48.288 28.926C48.288 28.1193 48.1633 27.4007 47.914 26.77C47.6793 26.1247 47.3347 25.5747 46.88 25.12C46.4253 24.6653 45.868 24.3207 45.208 24.086C44.5627 23.8513 43.822 23.734 42.986 23.734H39.664V20.83H42.788C44.24 20.83 45.5087 21.0427 46.594 21.468C47.6793 21.8933 48.5813 22.48 49.3 23.228C50.0187 23.9613 50.554 24.8047 50.906 25.758C51.2727 26.6967 51.456 27.672 51.456 28.684V29.168C51.456 30.136 51.2727 31.0893 50.906 32.028C50.554 32.9667 50.0187 33.8173 49.3 34.58C48.5813 35.3427 47.6793 35.9513 46.594 36.406C45.5087 36.8607 44.24 37.088 42.788 37.088H39.664ZM36.98 37.088V20.83H40.104V37.088H36.98ZM53.09 28.178V26.462H53.618C54.0433 26.462 54.3807 26.396 54.63 26.264C54.8793 26.132 55.0627 25.912 55.18 25.604C55.2973 25.2813 55.356 24.856 55.356 24.328V22.7L55.994 23.932C55.8913 24.0053 55.7447 24.0713 55.554 24.13C55.3633 24.174 55.1653 24.196 54.96 24.196C54.476 24.196 54.0727 24.0493 53.75 23.756C53.4273 23.448 53.266 23.03 53.266 22.502C53.266 22.0033 53.42 21.5853 53.728 21.248C54.036 20.896 54.476 20.72 55.048 20.72C55.4147 20.72 55.752 20.808 56.06 20.984C56.3827 21.1453 56.6393 21.4387 56.83 21.864C57.0207 22.2747 57.116 22.8467 57.116 23.58V23.954C57.116 24.9953 56.9693 25.824 56.676 26.44C56.3973 27.056 55.9867 27.5033 55.444 27.782C54.9013 28.046 54.2413 28.178 53.464 28.178H53.09ZM64.9613 37.154C63.8613 37.154 62.9519 37.0147 62.2333 36.736C61.5293 36.4427 61.0013 35.9587 60.6493 35.284C60.2973 34.5947 60.1213 33.6707 60.1213 32.512L60.1433 21.688H63.0033L62.9813 32.71C62.9813 33.2967 63.1353 33.7513 63.4433 34.074C63.7659 34.382 64.2206 34.536 64.8073 34.536H66.6773V37.154H64.9613ZM58.2293 27.298V25.054H66.6773V27.298H58.2293ZM76.4389 37V33.458H75.9329V29.52C75.9329 28.8307 75.7642 28.3173 75.4269 27.98C75.0896 27.6427 74.5689 27.474 73.8649 27.474C73.4982 27.474 73.0582 27.4813 72.5449 27.496C72.0316 27.5107 71.5109 27.5327 70.9829 27.562C70.4696 27.5767 70.0076 27.5987 69.5969 27.628V25.032C69.9342 25.0027 70.3156 24.9733 70.7409 24.944C71.1662 24.9147 71.5989 24.9 72.0389 24.9C72.4936 24.8853 72.9189 24.878 73.3149 24.878C74.5469 24.878 75.5662 25.0393 76.3729 25.362C77.1942 25.6847 77.8102 26.1907 78.2209 26.88C78.6462 27.5693 78.8589 28.4713 78.8589 29.586V37H76.4389ZM72.5889 37.308C71.7236 37.308 70.9609 37.154 70.3009 36.846C69.6556 36.538 69.1496 36.098 68.7829 35.526C68.4309 34.954 68.2549 34.2647 68.2549 33.458C68.2549 32.578 68.4676 31.8593 68.8929 31.302C69.3329 30.7447 69.9416 30.3267 70.7189 30.048C71.5109 29.7693 72.4349 29.63 73.4909 29.63H76.2629V31.456H73.4469C72.7429 31.456 72.2002 31.632 71.8189 31.984C71.4522 32.3213 71.2689 32.7613 71.2689 33.304C71.2689 33.8467 71.4522 34.2867 71.8189 34.624C72.2002 34.9613 72.7429 35.13 73.4469 35.13C73.8722 35.13 74.2609 35.0567 74.6129 34.91C74.9796 34.7487 75.2802 34.4847 75.5149 34.118C75.7642 33.7367 75.9036 33.2233 75.9329 32.578L76.6809 33.436C76.6076 34.272 76.4022 34.976 76.0649 35.548C75.7422 36.12 75.2876 36.56 74.7009 36.868C74.1289 37.1613 73.4249 37.308 72.5889 37.308ZM86.4685 37.374C84.8258 37.374 83.5352 37.0293 82.5965 36.34C81.6725 35.636 81.1885 34.668 81.1445 33.436H83.8945C83.9385 33.8467 84.1658 34.2207 84.5765 34.558C84.9872 34.8953 85.6325 35.064 86.5125 35.064C87.2458 35.064 87.8252 34.932 88.2505 34.668C88.6905 34.404 88.9105 34.0447 88.9105 33.59C88.9105 33.194 88.7418 32.8787 88.4045 32.644C88.0818 32.4093 87.5245 32.2553 86.7325 32.182L85.6765 32.072C84.3418 31.9253 83.3152 31.544 82.5965 30.928C81.8778 30.312 81.5185 29.4907 81.5185 28.464C81.5185 27.6427 81.7238 26.9533 82.1345 26.396C82.5452 25.8387 83.1098 25.4207 83.8285 25.142C84.5618 24.8487 85.3978 24.702 86.3365 24.702C87.8032 24.702 88.9912 25.0247 89.9005 25.67C90.8098 26.3153 91.2865 27.2613 91.3305 28.508H88.5805C88.5512 28.0973 88.3458 27.7453 87.9645 27.452C87.5832 27.1587 87.0332 27.012 86.3145 27.012C85.6692 27.012 85.1705 27.1367 84.8185 27.386C84.4665 27.6353 84.2905 27.958 84.2905 28.354C84.2905 28.7353 84.4298 29.0287 84.7085 29.234C85.0018 29.4393 85.4712 29.5787 86.1165 29.652L87.1725 29.762C88.5805 29.9087 89.6805 30.2973 90.4725 30.928C91.2792 31.5587 91.6825 32.4093 91.6825 33.48C91.6825 34.272 91.4625 34.9613 91.0225 35.548C90.5972 36.12 89.9958 36.5673 89.2185 36.89C88.4412 37.2127 87.5245 37.374 86.4685 37.374ZM102.569 37L98.5647 31.412H96.7827L101.865 25.054H105.055L100.369 30.928L100.435 29.388L106.023 37H102.569ZM94.2087 37V20.94H97.2667V37H94.2087Z" fill="white"/>
<path d="M1 99C10.4126 97.2458 18.1527 86.5486 29.3836 84.7505C35.3695 83.7922 40.1649 85.6574 45.5153 88.5556C50.8656 91.4537 49.8183 92.7052 61.8511 94.9395C71.781 96.7833 74.3785 76.9043 84.1088 77.6681C93.8391 78.4318 98.3395 54.5312 108.613 56.5263C118.886 58.5214 120.938 53.3631 130.595 63.1392C140.252 72.9154 149.174 50.1278 161.296 48.1327C173.418 46.1376 176.575 67.3136 182.328 66.5155C188.081 65.7175 193.261 80.8068 198.192 83.0014C203.123 85.1961 204.521 77.2236 215 77.2236" stroke="#AE8EF9" stroke-width="2" stroke-linecap="round" stroke-linejoin="round"/>
<path d="M29.3836 86.1977C18.1527 88.0177 10.4126 98.845 1 100.621V105H215V78.5792C204.521 78.5792 203.123 86.6487 198.192 84.4273C193.261 82.206 188.081 66.9331 182.328 67.7408C176.575 68.5486 173.418 47.1149 161.296 49.1343C149.174 51.1537 140.252 74.2186 130.595 64.3235C120.938 54.4284 118.886 59.6495 108.613 57.6301C98.3395 55.6106 93.8391 79.8022 84.1088 79.0291C74.3785 78.256 71.7811 98.3769 61.8511 96.5107C49.8183 94.2492 50.8656 92.9825 45.5153 90.0491C40.1649 87.1156 35.3695 85.2277 29.3836 86.1977Z" fill="url(#paint0_linear_40_215)"/>
<line x1="98.5" y1="65" x2="98.5" y2="98" stroke="#422F8A" stroke-opacity="0.87" stroke-dasharray="4.4 4.4"/>
<g filter="url(#filter0_dd_40_215)">
<rect x="95" y="60" width="8" height="8" rx="4" fill="#422F8A" fill-opacity="0.87"/>
<rect x="96" y="61" width="6" height="6" rx="3" stroke="white" stroke-width="2"/>
</g>
<path d="M16.502 146.098C15.5967 146.098 14.7707 145.888 14.024 145.468C13.2773 145.039 12.6847 144.446 12.246 143.69C11.8167 142.925 11.602 142.066 11.602 141.114C11.602 140.162 11.8167 139.308 12.246 138.552C12.6847 137.787 13.2773 137.194 14.024 136.774C14.7707 136.345 15.5967 136.13 16.502 136.13C17.4167 136.13 18.2473 136.345 18.994 136.774C19.7407 137.194 20.3287 137.782 20.758 138.538C21.1873 139.294 21.402 140.153 21.402 141.114C21.402 142.075 21.1873 142.934 20.758 143.69C20.3287 144.446 19.7407 145.039 18.994 145.468C18.2473 145.888 17.4167 146.098 16.502 146.098ZM16.502 144.992C17.1833 144.992 17.7947 144.833 18.336 144.516C18.8867 144.199 19.316 143.746 19.624 143.158C19.9413 142.57 20.1 141.889 20.1 141.114C20.1 140.33 19.9413 139.649 19.624 139.07C19.316 138.482 18.8913 138.029 18.35 137.712C17.8087 137.395 17.1927 137.236 16.502 137.236C15.8113 137.236 15.1953 137.395 14.654 137.712C14.1127 138.029 13.6833 138.482 13.366 139.07C13.058 139.649 12.904 140.33 12.904 141.114C12.904 141.889 13.058 142.57 13.366 143.158C13.6833 143.746 14.1127 144.199 14.654 144.516C15.2047 144.833 15.8207 144.992 16.502 144.992ZM26.8219 138.188C27.7552 138.188 28.5112 138.473 29.0899 139.042C29.6685 139.602 29.9579 140.414 29.9579 141.478V146H28.6979V141.66C28.6979 140.895 28.5065 140.311 28.1239 139.91C27.7412 139.499 27.2185 139.294 26.5559 139.294C25.8839 139.294 25.3472 139.504 24.9459 139.924C24.5539 140.344 24.3579 140.955 24.3579 141.758V146H23.0839V138.328H24.3579V139.42C24.6099 139.028 24.9505 138.725 25.3799 138.51C25.8185 138.295 26.2992 138.188 26.8219 138.188ZM33.3129 135.64V146H32.0389V135.64H33.3129ZM36.1423 137.082C35.8996 137.082 35.6943 136.998 35.5263 136.83C35.3583 136.662 35.2743 136.457 35.2743 136.214C35.2743 135.971 35.3583 135.766 35.5263 135.598C35.6943 135.43 35.8996 135.346 36.1423 135.346C36.3756 135.346 36.5716 135.43 36.7303 135.598C36.8983 135.766 36.9823 135.971 36.9823 136.214C36.9823 136.457 36.8983 136.662 36.7303 136.83C36.5716 136.998 36.3756 137.082 36.1423 137.082ZM36.7583 138.328V146H35.4843V138.328H36.7583ZM42.6676 138.188C43.6009 138.188 44.3569 138.473 44.9356 139.042C45.5142 139.602 45.8036 140.414 45.8036 141.478V146H44.5436V141.66C44.5436 140.895 44.3522 140.311 43.9696 139.91C43.5869 139.499 43.0642 139.294 42.4016 139.294C41.7296 139.294 41.1929 139.504 40.7916 139.924C40.3996 140.344 40.2036 140.955 40.2036 141.758V146H38.9296V138.328H40.2036V139.42C40.4556 139.028 40.7962 138.725 41.2256 138.51C41.6642 138.295 42.1449 138.188 42.6676 138.188ZM54.8846 141.87C54.8846 142.113 54.8706 142.369 54.8426 142.64H48.7106C48.7573 143.396 49.014 143.989 49.4806 144.418C49.9566 144.838 50.5306 145.048 51.2026 145.048C51.7533 145.048 52.2106 144.922 52.5746 144.67C52.948 144.409 53.2093 144.063 53.3586 143.634H54.7306C54.5253 144.371 54.1146 144.973 53.4986 145.44C52.8826 145.897 52.1173 146.126 51.2026 146.126C50.4746 146.126 49.8213 145.963 49.2426 145.636C48.6733 145.309 48.2253 144.847 47.8986 144.25C47.572 143.643 47.4086 142.943 47.4086 142.15C47.4086 141.357 47.5673 140.661 47.8846 140.064C48.202 139.467 48.6453 139.009 49.2146 138.692C49.7933 138.365 50.456 138.202 51.2026 138.202C51.9306 138.202 52.5746 138.361 53.1346 138.678C53.6946 138.995 54.124 139.434 54.4226 139.994C54.7306 140.545 54.8846 141.17 54.8846 141.87ZM53.5686 141.604C53.5686 141.119 53.4613 140.703 53.2466 140.358C53.032 140.003 52.738 139.737 52.3646 139.56C52.0006 139.373 51.5946 139.28 51.1466 139.28C50.5026 139.28 49.952 139.485 49.4946 139.896C49.0466 140.307 48.79 140.876 48.7246 141.604H53.5686Z" fill="#D0D1D2"/>
<path d="M12.862 172H14.878V161.794H11.504V163.6H12.862V172ZM16.5623 161.822V163.502H21.3503L17.5983 172H19.5863L23.3103 163.278V161.822H16.5623ZM24.9322 169.13C25.0442 170.628 26.0802 172.014 28.2502 172.014C30.9522 172.014 31.7222 170.138 31.7222 166.666C31.7222 163.432 30.8682 161.556 28.0962 161.556C25.9402 161.556 24.6522 162.9 24.6522 164.944C24.6522 167.1 26.0662 168.206 27.8302 168.206C28.7262 168.206 29.5522 167.856 29.9862 167.254C29.9862 169.55 29.4822 170.404 28.3342 170.404C27.4242 170.404 26.9062 169.942 26.7522 169.13H24.9322ZM28.2362 166.61C27.0462 166.61 26.5282 165.854 26.5282 164.93C26.5282 163.908 27.1442 163.222 28.1662 163.222C29.1602 163.222 29.8042 163.838 29.8042 164.958C29.8042 165.952 29.2162 166.61 28.2362 166.61ZM44.1298 164.244H42.1558V168.514C42.1558 169.76 41.4838 170.432 40.4198 170.432C39.3838 170.432 38.6978 169.76 38.6978 168.514V164.244H36.7378V168.794C36.7378 170.922 38.0398 172.098 39.8458 172.098C40.8118 172.098 41.6658 171.678 42.1558 171.02V172H44.1298V164.244ZM52.0837 169.788C52.0277 166.946 47.7297 167.828 47.7297 166.414C47.7297 165.966 48.1077 165.672 48.8357 165.672C49.6057 165.672 50.0817 166.078 50.1377 166.68H52.0137C51.9017 165.14 50.7677 164.118 48.8917 164.118C46.9737 164.118 45.8257 165.154 45.8257 166.442C45.8257 169.284 50.2077 168.402 50.2077 169.788C50.2077 170.236 49.7877 170.586 49.0177 170.586C48.2337 170.586 47.6877 170.138 47.6177 169.55H45.6437C45.7277 170.992 47.0857 172.126 49.0317 172.126C50.9217 172.126 52.0837 171.118 52.0837 169.788ZM57.0246 165.728C58.0326 165.728 58.8446 166.372 58.8726 167.394H55.1906C55.3446 166.33 56.0866 165.728 57.0246 165.728ZM60.7066 169.564H58.5926C58.3406 170.082 57.8786 170.502 57.0386 170.502C56.0586 170.502 55.2746 169.858 55.1766 168.71H60.8466C60.8886 168.458 60.9026 168.206 60.9026 167.954C60.9026 165.644 59.3206 164.118 57.0806 164.118C54.7846 164.118 53.1886 165.672 53.1886 168.122C53.1886 170.558 54.8266 172.126 57.0806 172.126C58.9986 172.126 60.2866 170.992 60.7066 169.564ZM64.2932 168.136C64.2932 166.638 64.9932 166.19 66.1552 166.19H66.6732V164.132C65.5952 164.132 64.7832 164.65 64.2932 165.448V164.244H62.3332V172H64.2932V168.136ZM74.0133 169.788C73.9573 166.946 69.6593 167.828 69.6593 166.414C69.6593 165.966 70.0373 165.672 70.7653 165.672C71.5353 165.672 72.0113 166.078 72.0673 166.68H73.9433C73.8313 165.14 72.6973 164.118 70.8213 164.118C68.9033 164.118 67.7553 165.154 67.7553 166.442C67.7553 169.284 72.1373 168.402 72.1373 169.788C72.1373 170.236 71.7173 170.586 70.9473 170.586C70.1633 170.586 69.6173 170.138 69.5473 169.55H67.5733C67.6573 170.992 69.0153 172.126 70.9613 172.126C72.8513 172.126 74.0133 171.118 74.0133 169.788Z" fill="#0CCE84"/>
<rect x="87" y="142" width="30" height="4" rx="2" fill="#0CCE84"/>
<path d="M145.502 146.098C144.597 146.098 143.771 145.888 143.024 145.468C142.277 145.039 141.685 144.446 141.246 143.69C140.817 142.925 140.602 142.066 140.602 141.114C140.602 140.162 140.817 139.308 141.246 138.552C141.685 137.787 142.277 137.194 143.024 136.774C143.771 136.345 144.597 136.13 145.502 136.13C146.417 136.13 147.247 136.345 147.994 136.774C148.741 137.194 149.329 137.782 149.758 138.538C150.187 139.294 150.402 140.153 150.402 141.114C150.402 142.075 150.187 142.934 149.758 143.69C149.329 144.446 148.741 145.039 147.994 145.468C147.247 145.888 146.417 146.098 145.502 146.098ZM145.502 144.992C146.183 144.992 146.795 144.833 147.336 144.516C147.887 144.199 148.316 143.746 148.624 143.158C148.941 142.57 149.1 141.889 149.1 141.114C149.1 140.33 148.941 139.649 148.624 139.07C148.316 138.482 147.891 138.029 147.35 137.712C146.809 137.395 146.193 137.236 145.502 137.236C144.811 137.236 144.195 137.395 143.654 137.712C143.113 138.029 142.683 138.482 142.366 139.07C142.058 139.649 141.904 140.33 141.904 141.114C141.904 141.889 142.058 142.57 142.366 143.158C142.683 143.746 143.113 144.199 143.654 144.516C144.205 144.833 144.821 144.992 145.502 144.992ZM155.206 139.378H153.596V146H152.322V139.378H151.328V138.328H152.322V137.782C152.322 136.923 152.541 136.298 152.98 135.906C153.428 135.505 154.142 135.304 155.122 135.304V136.368C154.562 136.368 154.165 136.48 153.932 136.704C153.708 136.919 153.596 137.278 153.596 137.782V138.328H155.206V139.378ZM159.813 139.378H158.203V146H156.929V139.378H155.935V138.328H156.929V137.782C156.929 136.923 157.149 136.298 157.587 135.906C158.035 135.505 158.749 135.304 159.729 135.304V136.368C159.169 136.368 158.773 136.48 158.539 136.704C158.315 136.919 158.203 137.278 158.203 137.782V138.328H159.813V139.378ZM162.573 135.64V146H161.299V135.64H162.573ZM165.402 137.082C165.159 137.082 164.954 136.998 164.786 136.83C164.618 136.662 164.534 136.457 164.534 136.214C164.534 135.971 164.618 135.766 164.786 135.598C164.954 135.43 165.159 135.346 165.402 135.346C165.635 135.346 165.831 135.43 165.99 135.598C166.158 135.766 166.242 135.971 166.242 136.214C166.242 136.457 166.158 136.662 165.99 136.83C165.831 136.998 165.635 137.082 165.402 137.082ZM166.018 138.328V146H164.744V138.328H166.018ZM171.927 138.188C172.861 138.188 173.617 138.473 174.195 139.042C174.774 139.602 175.063 140.414 175.063 141.478V146H173.803V141.66C173.803 140.895 173.612 140.311 173.229 139.91C172.847 139.499 172.324 139.294 171.661 139.294C170.989 139.294 170.453 139.504 170.051 139.924C169.659 140.344 169.463 140.955 169.463 141.758V146H168.189V138.328H169.463V139.42C169.715 139.028 170.056 138.725 170.485 138.51C170.924 138.295 171.405 138.188 171.927 138.188ZM184.144 141.87C184.144 142.113 184.13 142.369 184.102 142.64H177.97C178.017 143.396 178.274 143.989 178.74 144.418C179.216 144.838 179.79 145.048 180.462 145.048C181.013 145.048 181.47 144.922 181.834 144.67C182.208 144.409 182.469 144.063 182.618 143.634H183.99C183.785 144.371 183.374 144.973 182.758 145.44C182.142 145.897 181.377 146.126 180.462 146.126C179.734 146.126 179.081 145.963 178.502 145.636C177.933 145.309 177.485 144.847 177.158 144.25C176.832 143.643 176.668 142.943 176.668 142.15C176.668 141.357 176.827 140.661 177.144 140.064C177.462 139.467 177.905 139.009 178.474 138.692C179.053 138.365 179.716 138.202 180.462 138.202C181.19 138.202 181.834 138.361 182.394 138.678C182.954 138.995 183.384 139.434 183.682 139.994C183.99 140.545 184.144 141.17 184.144 141.87ZM182.828 141.604C182.828 141.119 182.721 140.703 182.506 140.358C182.292 140.003 181.998 139.737 181.624 139.56C181.26 139.373 180.854 139.28 180.406 139.28C179.762 139.28 179.212 139.485 178.754 139.896C178.306 140.307 178.05 140.876 177.984 141.604H182.828Z" fill="#D0D1D2"/>
<path d="M140.77 164.482H142.688C142.758 163.838 143.164 163.222 144.116 163.222C145.012 163.222 145.502 163.698 145.502 164.496C145.502 165.504 144.662 165.826 143.514 165.826H143.108V167.436H143.514C144.97 167.436 145.698 167.856 145.698 169.004C145.698 169.816 145.194 170.432 144.214 170.432C143.164 170.432 142.576 169.802 142.534 168.92H140.63C140.714 171.062 142.24 172.07 144.256 172.07C146.398 172.07 147.574 170.838 147.574 169.172C147.574 167.786 146.888 166.946 145.852 166.624V166.568C146.594 166.316 147.392 165.532 147.392 164.258C147.392 162.746 146.272 161.556 144.172 161.556C142.212 161.556 140.868 162.592 140.77 164.482ZM149.571 169.13C149.683 170.628 150.719 172.014 152.889 172.014C155.591 172.014 156.361 170.138 156.361 166.666C156.361 163.432 155.507 161.556 152.735 161.556C150.579 161.556 149.291 162.9 149.291 164.944C149.291 167.1 150.705 168.206 152.469 168.206C153.365 168.206 154.191 167.856 154.625 167.254C154.625 169.55 154.121 170.404 152.973 170.404C152.063 170.404 151.545 169.942 151.391 169.13H149.571ZM152.875 166.61C151.685 166.61 151.167 165.854 151.167 164.93C151.167 163.908 151.783 163.222 152.805 163.222C153.799 163.222 154.443 163.838 154.443 164.958C154.443 165.952 153.855 166.61 152.875 166.61ZM162.703 172H164.663V170.012H165.895V168.304H164.663V161.92H162.381L157.803 168.472V170.012H162.703V172ZM159.959 168.304L162.829 164.02V168.304H159.959ZM178.024 164.244H176.05V168.514C176.05 169.76 175.378 170.432 174.314 170.432C173.278 170.432 172.592 169.76 172.592 168.514V164.244H170.632V168.794C170.632 170.922 171.934 172.098 173.74 172.098C174.706 172.098 175.56 171.678 176.05 171.02V172H178.024V164.244ZM185.978 169.788C185.922 166.946 181.624 167.828 181.624 166.414C181.624 165.966 182.002 165.672 182.73 165.672C183.5 165.672 183.976 166.078 184.032 166.68H185.908C185.796 165.14 184.662 164.118 182.786 164.118C180.868 164.118 179.72 165.154 179.72 166.442C179.72 169.284 184.102 168.402 184.102 169.788C184.102 170.236 183.682 170.586 182.912 170.586C182.128 170.586 181.582 170.138 181.512 169.55H179.538C179.622 170.992 180.98 172.126 182.926 172.126C184.816 172.126 185.978 171.118 185.978 169.788ZM190.919 165.728C191.927 165.728 192.739 166.372 192.767 167.394H189.085C189.239 166.33 189.981 165.728 190.919 165.728ZM194.601 169.564H192.487C192.235 170.082 191.773 170.502 190.933 170.502C189.953 170.502 189.169 169.858 189.071 168.71H194.741C194.783 168.458 194.797 168.206 194.797 167.954C194.797 165.644 193.215 164.118 190.975 164.118C188.679 164.118 187.083 165.672 187.083 168.122C187.083 170.558 188.721 172.126 190.975 172.126C192.893 172.126 194.181 170.992 194.601 169.564ZM198.188 168.136C198.188 166.638 198.888 166.19 200.05 166.19H200.568V164.132C199.49 164.132 198.678 164.65 198.188 165.448V164.244H196.228V172H198.188V168.136ZM207.908 169.788C207.852 166.946 203.554 167.828 203.554 166.414C203.554 165.966 203.932 165.672 204.66 165.672C205.43 165.672 205.906 166.078 205.962 166.68H207.838C207.726 165.14 206.592 164.118 204.716 164.118C202.798 164.118 201.65 165.154 201.65 166.442C201.65 169.284 206.032 168.402 206.032 169.788C206.032 170.236 205.612 170.586 204.842 170.586C204.058 170.586 203.512 170.138 203.442 169.55H201.468C201.552 170.992 202.91 172.126 204.856 172.126C206.746 172.126 207.908 171.118 207.908 169.788Z" fill="#FF7667"/>
<circle cx="173.853" cy="1.85294" r="1.85294" fill="#838386"/>
<circle cx="182.5" cy="1.85294" r="1.85294" fill="#838386"/>
<circle cx="191.147" cy="1.85294" r="1.85294" fill="#838386"/>
<defs>
<filter id="filter0_dd_40_215" x="89.6667" y="57.3333" width="18.6667" height="18.6667" filterUnits="userSpaceOnUse" color-interpolation-filters="sRGB">
<feFlood flood-opacity="0" result="BackgroundImageFix"/>
<feColorMatrix in="SourceAlpha" type="matrix" values="0 0 0 0 0 0 0 0 0 0 0 0 0 0 0 0 0 0 127 0" result="hardAlpha"/>
<feOffset dy="2.66667"/>
<feGaussianBlur stdDeviation="2.66667"/>
<feColorMatrix type="matrix" values="0 0 0 0 0.196487 0 0 0 0 0.196487 0 0 0 0 0.279476 0 0 0 0.06 0"/>
<feBlend mode="multiply" in2="BackgroundImageFix" result="effect1_dropShadow_40_215"/>
<feColorMatrix in="SourceAlpha" type="matrix" values="0 0 0 0 0 0 0 0 0 0 0 0 0 0 0 0 0 0 127 0" result="hardAlpha"/>
<feOffset dy="2.66667"/>
<feGaussianBlur stdDeviation="1.33333"/>
<feColorMatrix type="matrix" values="0 0 0 0 0.196487 0 0 0 0 0.196487 0 0 0 0 0.279476 0 0 0 0.06 0"/>
<feBlend mode="multiply" in2="effect1_dropShadow_40_215" result="effect2_dropShadow_40_215"/>
<feBlend mode="normal" in="SourceGraphic" in2="effect2_dropShadow_40_215" result="shape"/>
</filter>
<linearGradient id="paint0_linear_40_215" x1="108" y1="49" x2="108" y2="128.425" gradientUnits="userSpaceOnUse">
<stop stop-color="#370DD2" stop-opacity="0.28"/>
<stop offset="0.67271" stop-color="white" stop-opacity="0"/>
</linearGradient>
</defs>
</svg>
